<svg xmlns="http://www.w3.org/2000/svg" viewBox="0 0 1192.18 465.49"><defs><style>.cls-1{fill:#fff;}</style></defs><title>Logo_Branco</title><g id="OLD_A" data-name="OLD A"><path class="cls-1" d="M699.86,179.13H689.13v-7h29.61v7H708v28.56h-8.14Z"/><path class="cls-1" d="M722.23,172.14h24.92v6.59H730.07v7.84h15.08v5.89H730.07v8.64h17.58v6.59H722.23Z"/><path class="cls-1" d="M762.08,172.14H772l12.93,35.55h-8.53l-2.4-7.14H760l-2.4,7.14h-8.54Zm10.28,22.47L767,178.83l-5.39,15.78Z"/><path class="cls-1" d="M792.13,179.13H781.4v-7H811v7H800.27v28.56h-8.14Z"/><path class="cls-1" d="M814.5,172.14h17.13a17.39,17.39,0,0,1,7.24,1.42,11.79,11.79,0,0,1,4.92,3.95,9.77,9.77,0,0,1,1.77,5.76,8.94,8.94,0,0,1-1.42,5,10,10,0,0,1-4,3.47,4.39,4.39,0,0,1,2.82,1.72A5.55,5.55,0,0,1,844,196.9v10.79h-8.14V197.8a3.67,3.67,0,0,0-1-2.62,3.17,3.17,0,0,0-2.44-1h-9.84v13.53H814.5ZM831,188.37a8.33,8.33,0,0,0,3.25-.63,5.46,5.46,0,0,0,2.34-1.75,4.42,4.42,0,0,0,0-5.21,5.56,5.56,0,0,0-2.34-1.8,8.17,8.17,0,0,0-3.25-.65h-8.34v10Z"/><path class="cls-1" d="M858.32,206.39a16.89,16.89,0,0,1-6.94-6.61,20.84,20.84,0,0,1,0-19.68,17.09,17.09,0,0,1,6.94-6.64,23.22,23.22,0,0,1,20.44,0,17.16,17.16,0,0,1,6.92,6.64,20.84,20.84,0,0,1,0,19.68,17,17,0,0,1-6.92,6.61,23.4,23.4,0,0,1-20.44,0Zm16.18-6.11a10.52,10.52,0,0,0,4.09-4.17,13.79,13.79,0,0,0,0-12.39,10.52,10.52,0,0,0-4.09-4.17,12.86,12.86,0,0,0-11.94,0,10.34,10.34,0,0,0-4.07,4.17,14,14,0,0,0,0,12.39,10.34,10.34,0,0,0,4.07,4.17,12.86,12.86,0,0,0,11.94,0Z"/><path class="cls-1" d="M909,172.14H922.4A24.17,24.17,0,0,1,933,174.36a16.79,16.79,0,0,1,7.11,6.24,18.41,18.41,0,0,1,0,18.63,16.79,16.79,0,0,1-7.11,6.24,24.17,24.17,0,0,1-10.64,2.22H909Zm13.43,29a14.77,14.77,0,0,0,6.45-1.32,9.76,9.76,0,0,0,4.24-3.87,11.62,11.62,0,0,0,1.5-6,11.45,11.45,0,0,0-1.5-6,9.88,9.88,0,0,0-4.24-3.87,14.49,14.49,0,0,0-6.45-1.35h-5.49V201.1Z"/><path class="cls-1" d="M955.18,206.39a17,17,0,0,1-6.94-6.61,20.84,20.84,0,0,1,0-19.68,17.15,17.15,0,0,1,6.94-6.64,23.24,23.24,0,0,1,20.45,0,17.22,17.22,0,0,1,6.92,6.64,20.84,20.84,0,0,1,0,19.68,17,17,0,0,1-6.92,6.61,23.42,23.42,0,0,1-20.45,0Zm16.18-6.11a10.54,10.54,0,0,0,4.1-4.17,13.79,13.79,0,0,0,0-12.39,10.54,10.54,0,0,0-4.1-4.17,12.84,12.84,0,0,0-11.93,0,10.28,10.28,0,0,0-4.07,4.17,14,14,0,0,0,0,12.39,10.28,10.28,0,0,0,4.07,4.17,12.84,12.84,0,0,0,11.93,0Z"/><path class="cls-1" d="M691.22,232.06h17.93a15,15,0,0,1,6.29,1.27,10.69,10.69,0,0,1,4.39,3.5,8.34,8.34,0,0,1,1.6,5,8.13,8.13,0,0,1-1.52,4.8,6.94,6.94,0,0,1-3.87,2.79,7.63,7.63,0,0,1,4.44,3,8.74,8.74,0,0,1,.1,10.36,10.82,10.82,0,0,1-4.54,3.54,16.07,16.07,0,0,1-6.54,1.28H691.22Zm16.48,14.73a7.42,7.42,0,0,0,2.92-.55,4.68,4.68,0,0,0,2-1.55,3.69,3.69,0,0,0,.72-2.2,3.51,3.51,0,0,0-.72-2.19,4.75,4.75,0,0,0-2-1.5,7.24,7.24,0,0,0-2.92-.55h-8.34v8.54Zm.2,14.63a8.4,8.4,0,0,0,3.22-.58,5.11,5.11,0,0,0,2.22-1.6,3.61,3.61,0,0,0,.8-2.32,3.79,3.79,0,0,0-.8-2.39,5.27,5.27,0,0,0-2.22-1.65,8.22,8.22,0,0,0-3.22-.6h-8.54v9.14Z"/><path class="cls-1" d="M735.81,232.06h9.89l12.93,35.55h-8.54l-2.39-7.14H733.77l-2.4,7.14h-8.54Zm10.29,22.47-5.34-15.78-5.4,15.78Z"/><path class="cls-1" d="M761.73,232.06h8.14v35.55h-8.14Z"/><path class="cls-1" d="M775.46,232.06h17.12a17.36,17.36,0,0,1,7.24,1.42,11.77,11.77,0,0,1,4.92,3.94,9.83,9.83,0,0,1,1.77,5.77,8.94,8.94,0,0,1-1.42,5,10.08,10.08,0,0,1-4,3.47,4.3,4.3,0,0,1,2.82,1.72,5.5,5.5,0,0,1,1.08,3.42v10.79h-8.14v-9.89a3.72,3.72,0,0,0-1-2.62,3.19,3.19,0,0,0-2.45-1H783.6v13.53h-8.14Zm16.47,16.22a8.29,8.29,0,0,0,3.25-.62,5.58,5.58,0,0,0,2.35-1.75,4.26,4.26,0,0,0,.85-2.62,4.33,4.33,0,0,0-.85-2.6,5.65,5.65,0,0,0-2.35-1.79,8.13,8.13,0,0,0-3.25-.65H783.6v10Z"/><path class="cls-1" d="M811.11,232.06h17.12a17.36,17.36,0,0,1,7.24,1.42,11.77,11.77,0,0,1,4.92,3.94,9.84,9.84,0,0,1,1.78,5.77,9,9,0,0,1-1.43,5,10.08,10.08,0,0,1-4,3.47,4.3,4.3,0,0,1,2.82,1.72,5.5,5.5,0,0,1,1.08,3.42v10.79h-8.14v-9.89a3.72,3.72,0,0,0-1-2.62,3.19,3.19,0,0,0-2.45-1h-9.83v13.53h-8.14Zm16.48,16.22a8.28,8.28,0,0,0,3.24-.62,5.58,5.58,0,0,0,2.35-1.75,4.26,4.26,0,0,0,.85-2.62,4.33,4.33,0,0,0-.85-2.6,5.65,5.65,0,0,0-2.35-1.79,8.12,8.12,0,0,0-3.24-.65h-8.34v10Z"/><path class="cls-1" d="M854.92,266.31a16.91,16.91,0,0,1-6.94-6.62A20.82,20.82,0,0,1,848,240a17.08,17.08,0,0,1,6.94-6.64,23.24,23.24,0,0,1,20.45,0,17.07,17.07,0,0,1,6.91,6.64,20.74,20.74,0,0,1,0,19.67,16.89,16.89,0,0,1-6.91,6.62,23.42,23.42,0,0,1-20.45,0Zm16.18-6.12a10.33,10.33,0,0,0,4.09-4.17,13.68,13.68,0,0,0,0-12.38,10.33,10.33,0,0,0-4.09-4.17,12.84,12.84,0,0,0-11.93,0,10.16,10.16,0,0,0-4.07,4.17,13.94,13.94,0,0,0,0,12.38,10.16,10.16,0,0,0,4.07,4.17,12.76,12.76,0,0,0,11.93,0Z"/><path class="cls-1" d="M916.06,232.06H926l12.93,35.55h-8.54L928,260.47H914l-2.4,7.14h-8.54Zm10.29,22.47L921,238.75l-5.4,15.78Z"/><path class="cls-1" d="M942,232.06h8.14v28.56h15.07v7H942Z"/><path class="cls-1" d="M971.34,239.05H960.6v-7h29.61v7H979.48v28.56h-8.14Z"/><path class="cls-1" d="M999.37,266.31a16.91,16.91,0,0,1-6.94-6.62,20.82,20.82,0,0,1,0-19.67,17.08,17.08,0,0,1,6.94-6.64,23.24,23.24,0,0,1,20.45,0,17.16,17.16,0,0,1,6.92,6.64,20.82,20.82,0,0,1,0,19.67,17,17,0,0,1-6.92,6.62,23.42,23.42,0,0,1-20.45,0Zm16.18-6.12a10.33,10.33,0,0,0,4.09-4.17,13.68,13.68,0,0,0,0-12.38,10.33,10.33,0,0,0-4.09-4.17,12.84,12.84,0,0,0-11.93,0,10.16,10.16,0,0,0-4.07,4.17,13.94,13.94,0,0,0,0,12.38,10.16,10.16,0,0,0,4.07,4.17,12.76,12.76,0,0,0,11.93,0Z"/><path class="cls-1" d="M659.54,319.27a2.36,2.36,0,0,1-2.36-2.36V128.58a2.36,2.36,0,0,1,4.72,0V316.91A2.36,2.36,0,0,1,659.54,319.27Z"/><path class="cls-1" d="M426.1,247.87H426v-.1h.17c18.09,0,28.55-12.5,28.55-27.91S444.25,192,426.16,192H365.93a5,5,0,0,0-5,5V316.91H468.25A47.62,47.62,0,0,0,474,293.85C474,268.46,455.9,247.87,426.1,247.87Z"/><path class="cls-1" d="M372.55,174.67a2.82,2.82,0,1,0,5.63,0V128.58h-5.63Z"/><path class="cls-1" d="M388.37,145.94a2.82,2.82,0,0,1,2.82,2.82v2.82H431.6a18.12,18.12,0,0,0,17.53-23H443.2a12.39,12.39,0,0,1,1,4.8,12.57,12.57,0,0,1-12.56,12.56H391.19V128.58h-5.64v20.18A2.82,2.82,0,0,1,388.37,145.94Z"/><path class="cls-1" d="M362.41,177.49a2.82,2.82,0,0,0,2.82-2.82V128.58h-5.64v46.09A2.82,2.82,0,0,0,362.41,177.49Z"/><path class="cls-1" d="M456.9,134.59a24.33,24.33,0,0,1-24.3,24.31H391.19v5.63H432.6a29.94,29.94,0,0,0,29.33-35.95h-5.81A24.32,24.32,0,0,1,456.9,134.59Z"/><path class="cls-1" d="M433.59,171.86h-42.4v-7.33h-2.74a2.82,2.82,0,1,1,0-5.63h2.74v-7.32h-2.82a2.83,2.83,0,0,1-2.82-2.82v25.91a2.82,2.82,0,0,0,2.82,2.82h45.22a41.73,41.73,0,0,0,41.68-41.69,41,41,0,0,0-.64-7.22h-5.72a36.06,36.06,0,0,1-35.32,43.28Z"/><path class="cls-1" d="M388.37,151.58h2.82v-2.82a2.82,2.82,0,1,0-2.82,2.82Z"/><path class="cls-1" d="M385.63,161.72a2.81,2.81,0,0,0,2.82,2.81h2.74V158.9h-2.74A2.82,2.82,0,0,0,385.63,161.72Z"/><path class="cls-1" d="M288.74,229.13a2.82,2.82,0,0,0,2.82-2.82V128.58h-5.64v97.73A2.82,2.82,0,0,0,288.74,229.13Z"/><path class="cls-1" d="M262.9,229.13a2.82,2.82,0,0,0,2.82-2.82V128.58h-5.64v97.73A2.82,2.82,0,0,0,262.9,229.13Z"/><path class="cls-1" d="M275.82,229.13a2.82,2.82,0,0,0,2.82-2.82V128.58H273v97.73A2.82,2.82,0,0,0,275.82,229.13Z"/><path class="cls-1" d="M570.73,263.25h-24a5,5,0,0,0-4.69,3.33l-17.52,50.33h68.62l-17.75-50.35A5,5,0,0,0,570.73,263.25Z"/><path class="cls-1" d="M315.43,257.22a3,3,0,0,1,2.09.86l15.17,23.12a2.08,2.08,0,0,0,3.55-1.47V247.29A5.25,5.25,0,0,0,331,242H220.64a5.24,5.24,0,0,0-5.24,5.25v32.44A2.08,2.08,0,0,0,219,281.2l15.17-23.12a3,3,0,0,1,2.09-.86H258.8l12.73.06-8.27,5.79a3.53,3.53,0,0,0-1.51,2.9v50.94h28.14V257.22Z"/><path class="cls-1" d="M490.23,243.57a1.93,1.93,0,0,0,1.35,3.3h36.07a1.93,1.93,0,0,0,1.36-3.29l-11.12-11.11,9.36-24,.79-2,.65-1.67H591.8l-6.51,2.9a2.14,2.14,0,0,0-1.14,2.68l8,22.12L581,243.58a1.93,1.93,0,0,0,1.36,3.29h44.16a1.93,1.93,0,0,0,1.36-3.29l-12-12-39.58-103H542.83l-40.45,103Zm66.15-109.69,20.77,57.33H534.23Z"/></g></svg>